<?xml version="1.0" standalone="no"?>
<!DOCTYPE svg PUBLIC "-//W3C//DTD SVG 20010904//EN"
 "http://www.w3.org/TR/2001/REC-SVG-20010904/DTD/svg10.dtd">
<svg version="1.0" xmlns="http://www.w3.org/2000/svg"
 width="300.000000pt" height="300.000000pt" viewBox="0 0 300.000000 300.000000"
 preserveAspectRatio="xMidYMid meet">
<metadata>
Created by potrace 1.11, written by Peter Selinger 2001-2013
</metadata>
<g transform="translate(0.000000,300.000000) scale(0.100000,-0.100000)"
fill="#000000" stroke="none">
<path d="M1289 2935 c-176 -28 -293 -66 -442 -140 -282 -142 -504 -366 -647
-653 -59 -119 -92 -215 -121 -352 -33 -152 -33 -428 0 -580 97 -449 374 -808
779 -1010 119 -59 215 -92 352 -121 152 -33 428 -33 580 0 449 97 808 374
1010 779 59 119 92 215 121 352 33 152 33 428 0 580 -124 577 -554 1008 -1126
1130 -131 28 -383 35 -506 15z m156 -1435 c120 -278 220 -513 222 -522 5 -16
-4 -18 -81 -18 -80 0 -87 2 -95 23 -5 12 -30 73 -56 135 l-47 112 -177 0 -176
0 -55 -135 -55 -135 -89 0 c-66 0 -87 3 -83 13 4 9 383 895 444 1037 13 31 16
33 23 15 4 -11 106 -247 225 -525z m805 450 l0 -90 -130 0 -130 0 0 -450 0
-450 -95 0 -95 0 0 450 0 450 -130 0 -130 0 0 90 0 90 355 0 355 0 0 -90z"/>
<path d="M1200 1637 c0 -6 -22 -65 -50 -130 -27 -65 -50 -120 -50 -123 0 -2
50 -4 110 -4 61 0 110 3 110 7 0 4 -24 64 -52 135 -48 116 -68 150 -68 115z"/>
</g>
</svg>
